<?xml version="1.0" encoding="UTF-8"?>
<svg id="Layer_1" xmlns="http://www.w3.org/2000/svg" viewBox="0 0 731.11 586.37">
  <defs>
    <style>
      .cls-1 {
        fill: #c49a6c;
      }
    </style>
  </defs>
  <g>
    <path class="cls-1" d="M365.56,289.27c38.9,0,70.55-31.65,70.55-70.54V66.32c0-4.04-3.27-7.31-7.31-7.31s-7.31,3.27-7.31,7.31v152.41c0,30.84-25.09,55.92-55.92,55.92s-55.92-25.09-55.92-55.92v-41.59h30.33c28.44,0,51.59-23.14,51.59-51.59,0-4.04-3.27-7.31-7.31-7.31h-37.64c-28.41,0-51.52,23.08-51.58,51.47,0,.04-.01.07-.01.11v48.9c0,38.9,31.65,70.54,70.55,70.54ZM346.61,132.87h29.6c-3.4,16.9-18.36,29.66-36.24,29.66h-29.6c3.4-16.9,18.36-29.66,36.24-29.66Z"/>
    <path class="cls-1" d="M562.73,0h-37.64c-28.44,0-51.59,23.14-51.59,51.59,0,.01,0,.03,0,.04v169.84c0,59.53-48.43,107.96-107.95,107.96s-107.96-48.43-107.96-107.96v-110.76s0-.03,0-.04c-.03-28.42-23.16-51.53-51.58-51.53h-37.64c-4.04,0-7.31,3.27-7.31,7.31,0,28.44,23.14,51.59,51.59,51.59h30.33v103.43c0,67.59,54.99,122.58,122.58,122.58s122.58-54.99,122.58-122.58V58.9h30.32c28.44,0,51.59-23.14,51.59-51.59,0-4.04-3.27-7.31-7.31-7.31ZM212.66,103.41c-17.88,0-32.84-12.76-36.24-29.65h29.6c17.88,0,32.84,12.76,36.24,29.65h-29.6ZM518.46,44.28h-29.6c3.4-16.89,18.36-29.65,36.24-29.65h29.6c-3.4,16.89-18.36,29.65-36.24,29.65Z"/>
  </g>
  <g>
    <path class="cls-1" d="M139.05,384.72h-20.44c-15.23,0-27.78,11.62-29.24,26.48-.06.48-.08.93-.11,1.38v55.51c0,17.48-13.3,32.76-30.76,33.64-18.62.94-33.47-13.66-33.47-32.41v-66.17c0-7.85,4.19-7.85,5.99-7.85h2.51v-7.01c0-.12-.1-.22-.22-.22H.22c-.12,0-.22.1-.22.22v7.01h2.51c1.77,0,5.97,0,5.97,7.85v64.75c0,25.65,21,47.52,46.64,47,25.48-.52,44.58-19.93,44.58-45.58v-49.93c0-.12.1-.22.22-.22h15.03c16.2,0,29.36-13.18,29.38-29.35,0-2.84-2.44-5.1-5.28-5.1ZM114.94,409.04h-14.61c-.15,0-.27-.15-.22-.3,2.32-8.01,9.73-13.89,18.49-13.89h14.61c.15,0,.27.15.22.3-2.32,8.01-9.73,13.89-18.49,13.89Z"/>
    <g>
      <path class="cls-1" d="M174.25,387.07v4.73h1.22c1.88,0,7.6,0,7.6,9.54v98.76c0,9.54-5.72,9.54-7.6,9.54h-1.22v4.73h32.07s0-4.73,0-4.73h-1.22c-5.04,0-7.6-3.21-7.6-9.54v-52.04h36.88c4.11,0,6.9.7,8.27,2.07,1.27,1.27,1.27,3.07,1.26,4.81l.02,1.94h4.72v-25.02h-4.72v1.21s-.01.72-.01.72c0,1.74.02,3.55-1.24,4.81-1.37,1.38-4.16,2.08-8.3,2.08h-36.87v-46.24h42.17c9.64,0,11.58,8.05,12.99,13.92l.48,1.95h4.71l-4.24-23.25h-79.36Z"/>
      <path class="cls-1" d="M343.46,469.15c-1.26,16.25-4.72,37.85-20.19,37.85h-35.11v-105.92c0-9.27,5.72-9.27,7.6-9.27h1.22v-4.73h-32.07v4.73h1.22c1.88,0,7.6,0,7.6,9.54v98.76c0,9.54-5.72,9.54-7.6,9.54h-1.22v4.73h79.54s3.85-46.35,3.85-46.35h-4.75l-.09,1.13Z"/>
      <path class="cls-1" d="M411.63,385.31c-34.16,0-58.01,26.9-58.01,65.41s23.85,65.41,58.01,65.41,58.01-26.9,58.01-65.41-23.85-65.41-58.01-65.41ZM447.64,488.05c-6.89,12.38-17.58,19.54-30.9,20.72-13.38,1.17-25.18-4.03-34.11-15.05-8.05-9.93-13.23-23.88-14.58-39.28-1.35-15.29,1.34-29.87,7.57-41.05,6.89-12.38,17.58-19.54,30.9-20.72,1.24-.11,2.46-.16,3.67-.16,11.87,0,22.33,5.21,30.44,15.21,8.05,9.93,13.23,23.88,14.58,39.27h0c1.35,15.29-1.34,29.87-7.57,41.05Z"/>
      <path class="cls-1" d="M580.95,391.8h1.22c1.88,0,7.6,0,7.6,9.54v98.76c0,9.54-5.72,9.54-7.6,9.54h-.19c-13.95-.08-23.96-9.09-29.75-26.78l-.06-.19c-.62-1.92-1.22-3.9-1.83-5.89-3.56-11.69-7.22-23.73-16.41-29.64,16.7-3.17,26.19-13.73,26.19-29.39,0-22.64-20.89-30.67-38.78-30.67h-47.07v4.73h1.22c1.88,0,7.6,0,7.6,9.54v98.76c0,9.54-5.72,9.54-7.6,9.54h-1.22v4.73h37.36v-4.73h-6.51c-1.84,0-7.46,0-7.6-9.55v-41.6c0-6.23,3.02-8.65,10.77-8.65,4.1,0,18.28,2.02,28.8,27.97,9.35,23.1,24.9,36.02,43.88,36.56v.02h.85c.12,0,.25,0,.37,0h1.22s29.63,0,29.63,0v-4.73h-1.22c-1.88,0-7.6,0-7.6-9.54v-98.76c0-9.54,5.72-9.54,7.6-9.54h1.22v-4.73h-32.07v4.73ZM497.51,394.46h19.59c18.97,0,28.58,7.84,28.58,23.29,0,10.46-4.96,22.94-28.58,22.94h-.51s0,0,0,0c-8.08.07-15.02,1.86-19.08,4.82v-51.06Z"/>
      <path class="cls-1" d="M729.89,509.64c-.33,0-8.17-.12-11.48-10.11l-37.28-112.46h-26.97v4.73h1.22c3.69,0,6.4.94,7.61,2.65,1.02,1.44,1.06,3.55.11,6.27l-34.42,98.76c-1.61,4.63-4.93,10.15-11.58,10.15h-1.22v4.73h29.26v-4.75h-1.22c-3.66,0-6.19-.84-7.32-2.42-1.02-1.43-1.03-3.62-.03-6.48l13.69-39.25h39.71l12.59,39.2c.92,2.87.85,5.05-.2,6.5-1.17,1.61-3.73,2.45-7.4,2.45h-1.22v4.75h37.38v-4.73h-1.22ZM670.93,402.19l16.67,51.89h-34.76l18.09-51.89Z"/>
    </g>
  </g>
  <g>
    <path class="cls-1" d="M60.93,575.54v10.57h-3.11v-10.57l-8.19-15.43h3.43l6.31,12.36,6.31-12.36h3.43l-8.19,15.43Z"/>
    <path class="cls-1" d="M75.17,585.22c-1.38-.77-2.43-1.87-3.17-3.32-.73-1.44-1.1-3.15-1.1-5.11v-7.37c0-1.97.37-3.67,1.1-5.11.73-1.44,1.79-2.55,3.17-3.32,1.38-.77,3-1.15,4.87-1.15s3.5.38,4.87,1.15c1.38.77,2.43,1.87,3.17,3.32s1.1,3.15,1.1,5.11v7.37c0,1.97-.37,3.67-1.1,5.11-.73,1.44-1.79,2.55-3.17,3.32-1.38.77-3,1.15-4.87,1.15s-3.5-.38-4.87-1.15ZM83.24,582.61c.9-.52,1.59-1.26,2.07-2.23.48-.97.72-2.12.72-3.46v-7.62c0-1.33-.24-2.49-.72-3.46-.48-.97-1.17-1.72-2.07-2.24-.9-.52-1.96-.78-3.19-.78s-2.29.26-3.19.78c-.9.52-1.59,1.26-2.07,2.24-.48.97-.72,2.12-.72,3.46v7.62c0,1.34.24,2.49.72,3.46.48.97,1.17,1.72,2.07,2.23.9.52,1.96.78,3.19.78s2.29-.26,3.19-.78Z"/>
    <path class="cls-1" d="M98.84,585.28c-1.36-.73-2.38-1.8-3.07-3.23-.69-1.42-1.04-3.18-1.04-5.27v-16.68h3.11v16.81c0,2.09.51,3.67,1.53,4.77,1.02,1.09,2.51,1.64,4.48,1.64s3.48-.55,4.51-1.64c1.02-1.09,1.54-2.68,1.54-4.77v-16.81h3.11v16.68c0,2.09-.35,3.84-1.04,5.27-.69,1.42-1.72,2.5-3.08,3.23-1.36.73-3.04,1.09-5.03,1.09s-3.65-.36-5.01-1.09Z"/>
    <path class="cls-1" d="M119.08,560.09h3.11v26.02h-3.11v-26.02ZM120.67,572.18h8.87c.83,0,1.57-.19,2.2-.56.63-.38,1.12-.91,1.47-1.61.35-.7.52-1.5.54-2.4,0-.91-.17-1.71-.52-2.4-.35-.7-.83-1.23-1.47-1.61-.63-.38-1.37-.56-2.22-.56h-8.87v-2.93h8.73c1.5,0,2.82.31,3.96.93,1.14.62,2.02,1.5,2.65,2.64s.94,2.45.94,3.94-.31,2.8-.94,3.94c-.63,1.14-1.51,2.02-2.66,2.64-1.14.62-2.46.93-3.95.93h-8.73v-2.93ZM128.37,574.3l3-.82,6.65,12.62h-3.7l-5.95-11.8Z"/>
    <path class="cls-1" d="M153.46,586.02c-1.12-.24-2.17-.6-3.14-1.07-.97-.48-1.88-1.07-2.73-1.79l1.91-2.41c1.04.91,2.18,1.59,3.43,2.04,1.25.45,2.61.68,4.08.68,2.06,0,3.66-.39,4.78-1.18,1.13-.79,1.69-1.9,1.69-3.34v-.02c0-.95-.25-1.71-.75-2.27-.5-.56-1.15-.98-1.94-1.26-.79-.28-1.81-.53-3.07-.76-.04-.01-.07-.02-.12-.03-.04,0-.08-.01-.12-.03l-.39-.07c-1.79-.32-3.23-.67-4.33-1.05-1.1-.38-2.03-1.04-2.8-1.98-.77-.95-1.15-2.28-1.15-4v-.02c0-1.61.36-2.98,1.08-4.12.72-1.14,1.77-2.01,3.16-2.6,1.38-.6,3.05-.89,4.99-.89.92,0,1.83.1,2.73.3.9.2,1.79.5,2.66.9s1.74.9,2.6,1.51l-1.79,2.45c-1.06-.75-2.1-1.31-3.13-1.69-1.03-.38-2.05-.56-3.08-.56-1.96,0-3.47.4-4.54,1.2-1.07.8-1.61,1.93-1.61,3.4v.02c0,.94.27,1.68.81,2.22.54.54,1.22.94,2.03,1.2.81.26,1.93.53,3.36.8.05.01.1.02.14.04.05.01.1.02.14.04.07.01.14.02.21.04.07.01.13.02.21.04,1.6.33,2.93.72,4.01,1.15,1.07.44,1.97,1.13,2.68,2.07.72.95,1.07,2.23,1.07,3.85v.04c0,1.59-.38,2.94-1.13,4.07-.75,1.13-1.84,1.98-3.26,2.57-1.42.59-3.14.89-5.16.89-1.25,0-2.44-.12-3.56-.36Z"/>
    <path class="cls-1" d="M175.13,586.11h-3.11v-26h3.11v26Z"/>
    <path class="cls-1" d="M199.61,572.46v4.18c0,2.05-.35,3.81-1.06,5.27-.71,1.46-1.75,2.57-3.11,3.33-1.37.76-3.01,1.14-4.93,1.14s-3.6-.36-4.98-1.07c-1.38-.72-2.43-1.76-3.15-3.13-.72-1.37-1.08-3.02-1.08-4.95v-7.67c0-2.05.35-3.8,1.06-5.26.71-1.45,1.75-2.56,3.11-3.32,1.36-.76,3.01-1.14,4.93-1.14,1.59,0,3,.3,4.24.9,1.24.6,2.26,1.48,3.07,2.64.8,1.16,1.37,2.55,1.69,4.18h-3.36c-.26-1.04-.66-1.91-1.2-2.61-.54-.7-1.18-1.24-1.93-1.6-.75-.36-1.59-.55-2.5-.55-1.26,0-2.34.27-3.23.8-.89.53-1.56,1.3-2.03,2.3-.46,1-.7,2.22-.7,3.65v7.67c0,1.32.24,2.44.71,3.36.47.92,1.16,1.62,2.06,2.1.91.48,2,.72,3.29.72s2.33-.25,3.2-.75c.87-.5,1.53-1.25,1.99-2.24.46-1,.69-2.23.69-3.71v-1.31h-5.79v-2.93h9.01Z"/>
    <path class="cls-1" d="M205.51,560.11h2.95l13.91,21.76-.75-.13v-21.63h3.09v25.98h-2.99l-14.04-21.71.91.29v21.42h-3.09v-25.98Z"/>
    <path class="cls-1" d="M238.23,560.11h3.11l9.58,26h-3.4l-7.74-22.14-7.74,22.14h-3.4l9.58-26ZM233.06,577.17h13.68v2.93h-13.68v-2.93Z"/>
    <path class="cls-1" d="M250.57,560.11h18.35v2.93h-18.35v-2.93ZM258.19,561.7h3.11v24.41h-3.11v-24.41Z"/>
    <path class="cls-1" d="M275.53,585.28c-1.36-.73-2.38-1.8-3.07-3.23-.69-1.42-1.04-3.18-1.04-5.27v-16.68h3.11v16.81c0,2.09.51,3.67,1.53,4.77,1.02,1.09,2.51,1.64,4.48,1.64s3.48-.55,4.51-1.64c1.02-1.09,1.54-2.68,1.54-4.77v-16.81h3.11v16.68c0,2.09-.35,3.84-1.04,5.27-.69,1.42-1.72,2.5-3.08,3.23s-3.04,1.09-5.03,1.09-3.65-.36-5.01-1.09Z"/>
    <path class="cls-1" d="M295.77,560.09h3.11v26.02h-3.11v-26.02ZM297.36,572.18h8.87c.83,0,1.57-.19,2.2-.56.63-.38,1.12-.91,1.47-1.61.35-.7.52-1.5.54-2.4,0-.91-.17-1.71-.52-2.4-.35-.7-.83-1.23-1.47-1.61-.63-.38-1.37-.56-2.22-.56h-8.87v-2.93h8.73c1.5,0,2.82.31,3.96.93,1.14.62,2.02,1.5,2.65,2.64s.94,2.45.94,3.94-.31,2.8-.94,3.94c-.63,1.14-1.51,2.02-2.66,2.64-1.14.62-2.46.93-3.95.93h-8.73v-2.93ZM305.07,574.3l3-.82,6.65,12.62h-3.7l-5.95-11.8Z"/>
    <path class="cls-1" d="M319.64,560.11h3.11v26h-3.11v-26ZM321.41,560.11h14.93v2.93h-14.93v-2.93ZM321.41,571.73h12.96v2.93h-12.96v-2.93ZM321.41,583.17h14.93v2.93h-14.93v-2.93Z"/>
    <path class="cls-1" d="M347.78,560.11h3.11v26h-3.11v-26ZM349.57,560.11h14.57v2.93h-14.57v-2.93ZM349.57,571.96h12.61v2.93h-12.61v-2.93Z"/>
    <path class="cls-1" d="M368.26,560.09h3.11v26.02h-3.11v-26.02ZM369.85,572.18h8.87c.83,0,1.57-.19,2.2-.56.63-.38,1.12-.91,1.47-1.61.35-.7.52-1.5.54-2.4,0-.91-.17-1.71-.52-2.4-.35-.7-.83-1.23-1.47-1.61-.63-.38-1.37-.56-2.22-.56h-8.87v-2.93h8.73c1.5,0,2.82.31,3.96.93,1.14.62,2.02,1.5,2.65,2.64s.94,2.45.94,3.94-.31,2.8-.94,3.94c-.63,1.14-1.51,2.02-2.66,2.64-1.14.62-2.46.93-3.95.93h-8.73v-2.93ZM377.55,574.3l3-.82,6.65,12.62h-3.7l-5.95-11.8Z"/>
    <path class="cls-1" d="M398.49,560.11h3.11l9.58,26h-3.4l-7.74-22.14-7.74,22.14h-3.4l9.58-26ZM393.32,577.17h13.68v2.93h-13.68v-2.93Z"/>
    <path class="cls-1" d="M432.36,572.46v4.18c0,2.05-.35,3.81-1.06,5.27-.71,1.46-1.75,2.57-3.11,3.33-1.37.76-3.01,1.14-4.93,1.14s-3.6-.36-4.98-1.07c-1.38-.72-2.43-1.76-3.15-3.13-.72-1.37-1.08-3.02-1.08-4.95v-7.67c0-2.05.35-3.8,1.06-5.26.71-1.45,1.75-2.56,3.11-3.32,1.36-.76,3.01-1.14,4.93-1.14,1.59,0,3,.3,4.24.9,1.24.6,2.26,1.48,3.07,2.64.8,1.16,1.37,2.55,1.69,4.18h-3.36c-.26-1.04-.66-1.91-1.2-2.61-.54-.7-1.18-1.24-1.93-1.6-.75-.36-1.59-.55-2.5-.55-1.26,0-2.34.27-3.23.8-.89.53-1.56,1.3-2.03,2.3-.46,1-.7,2.22-.7,3.65v7.67c0,1.32.24,2.44.71,3.36.47.92,1.16,1.62,2.06,2.1.91.48,2,.72,3.29.72s2.33-.25,3.2-.75c.87-.5,1.53-1.25,1.99-2.24.46-1,.69-2.23.69-3.71v-1.31h-5.79v-2.93h9.01Z"/>
    <path class="cls-1" d="M438.26,560.09h3.11v26.02h-3.11v-26.02ZM439.85,572.18h8.87c.83,0,1.57-.19,2.2-.56.63-.38,1.12-.91,1.47-1.61.35-.7.52-1.5.54-2.4,0-.91-.17-1.71-.52-2.4-.35-.7-.83-1.23-1.47-1.61-.63-.38-1.37-.56-2.22-.56h-8.87v-2.93h8.73c1.5,0,2.82.31,3.96.93,1.14.62,2.02,1.5,2.65,2.64s.94,2.45.94,3.94-.31,2.8-.94,3.94c-.63,1.14-1.51,2.02-2.66,2.64-1.14.62-2.46.93-3.95.93h-8.73v-2.93ZM447.55,574.3l3-.82,6.65,12.62h-3.7l-5.95-11.8Z"/>
    <path class="cls-1" d="M468.49,560.11h3.11l9.58,26h-3.4l-7.74-22.14-7.74,22.14h-3.4l9.58-26ZM463.33,577.17h13.68v2.93h-13.68v-2.93Z"/>
    <path class="cls-1" d="M485.12,560.11h2.95l13.91,21.76-.75-.13v-21.63h3.09v25.98h-2.99l-14.04-21.71.91.29v21.42h-3.09v-25.98Z"/>
    <path class="cls-1" d="M514.53,585.18c-1.37-.8-2.42-1.93-3.17-3.4-.75-1.47-1.13-3.16-1.13-5.1v-7.13c0-1.93.38-3.63,1.13-5.1.75-1.47,1.81-2.6,3.17-3.41,1.36-.8,2.95-1.21,4.75-1.21,1.49,0,2.86.31,4.11.93,1.25.62,2.3,1.5,3.14,2.65.84,1.14,1.41,2.47,1.71,3.97h-3.15c-.26-.89-.69-1.69-1.28-2.39-.59-.7-1.28-1.24-2.07-1.62-.79-.38-1.61-.57-2.46-.57-1.18,0-2.21.28-3.1.84-.89.56-1.58,1.35-2.07,2.36-.49,1.01-.73,2.19-.73,3.54v7.13c0,1.34.24,2.51.73,3.53s1.18,1.81,2.07,2.36c.89.55,1.92.83,3.1.83.86,0,1.68-.18,2.47-.54.79-.36,1.48-.88,2.07-1.57.59-.69,1.02-1.51,1.28-2.47h3.15c-.3,1.5-.87,2.83-1.72,3.97-.85,1.14-1.9,2.03-3.15,2.65-1.25.62-2.62.93-4.09.93-1.8,0-3.38-.4-4.75-1.2Z"/>
    <path class="cls-1" d="M533.42,560.11h3.11v26h-3.11v-26ZM535.19,560.11h14.93v2.93h-14.93v-2.93ZM535.19,571.73h12.96v2.93h-12.96v-2.93ZM535.19,583.17h14.93v2.93h-14.93v-2.93Z"/>
    <path class="cls-1" d="M568.64,560.11h3.11l9.58,26h-3.4l-7.74-22.14-7.74,22.14h-3.4l9.58-26ZM563.47,577.17h13.68v2.93h-13.68v-2.93Z"/>
    <path class="cls-1" d="M594.51,560.11h2.15l5.51,21.37,5.04-21.37h3.34l-6.71,26h-3.18l-4.97-19.33-5.19,19.33h-3.18l-6.7-26h3.34l5.04,21.37,5.51-21.37Z"/>
    <path class="cls-1" d="M619.78,560.11h3.11l9.58,26h-3.4l-7.74-22.14-7.74,22.14h-3.4l9.58-26ZM614.61,577.17h13.68v2.93h-13.68v-2.93Z"/>
    <path class="cls-1" d="M639.78,586.11h-3.11v-26h3.11v26Z"/>
    <path class="cls-1" d="M642.91,560.11h18.35v2.93h-18.35v-2.93ZM650.53,561.7h3.11v24.41h-3.11v-24.41Z"/>
    <path class="cls-1" d="M668.38,586.02c-1.12-.24-2.17-.6-3.14-1.07-.97-.48-1.88-1.07-2.73-1.79l1.91-2.41c1.04.91,2.18,1.59,3.43,2.04,1.25.45,2.61.68,4.08.68,2.06,0,3.66-.39,4.78-1.18,1.13-.79,1.69-1.9,1.69-3.34v-.02c0-.95-.25-1.71-.75-2.27-.5-.56-1.15-.98-1.94-1.26-.79-.28-1.81-.53-3.07-.76-.04-.01-.07-.02-.12-.03-.04,0-.08-.01-.12-.03l-.39-.07c-1.79-.32-3.23-.67-4.33-1.05-1.1-.38-2.03-1.04-2.8-1.98-.77-.95-1.15-2.28-1.15-4v-.02c0-1.61.36-2.98,1.08-4.12.72-1.14,1.77-2.01,3.16-2.6,1.38-.6,3.05-.89,4.99-.89.92,0,1.83.1,2.73.3.9.2,1.79.5,2.66.9s1.74.9,2.6,1.51l-1.79,2.45c-1.06-.75-2.1-1.31-3.13-1.69-1.03-.38-2.05-.56-3.08-.56-1.96,0-3.47.4-4.54,1.2-1.07.8-1.61,1.93-1.61,3.4v.02c0,.94.27,1.68.81,2.22.54.54,1.22.94,2.03,1.2.81.26,1.93.53,3.36.8.05.01.1.02.14.04.05.01.1.02.14.04.07.01.14.02.21.04.07.01.13.02.21.04,1.6.33,2.93.72,4.01,1.15,1.07.44,1.97,1.13,2.68,2.07.72.95,1.07,2.23,1.07,3.85v.04c0,1.59-.38,2.94-1.13,4.07s-1.84,1.98-3.26,2.57c-1.42.59-3.14.89-5.16.89-1.25,0-2.44-.12-3.56-.36Z"/>
  </g>
</svg>