<?xml version="1.0" encoding="UTF-8"?>
<svg id="Layer_1" xmlns="http://www.w3.org/2000/svg" viewBox="0 0 1080 1080">
  <defs>
    <style>
      .cls-1 {
        fill: #c49a6c;
      }

      .cls-2 {
        fill: #3a2a30;
      }
    </style>
  </defs>
  <rect class="cls-2" x="-17.63" y="-17.63" width="1115.27" height="1115.27"/>
  <g>
    <path class="cls-1" d="M540.01,752.71c70.57,0,127.98-57.41,127.98-127.97v-276.49c0-7.33-5.94-13.26-13.26-13.26s-13.26,5.94-13.26,13.26v276.49c0,55.94-45.51,101.45-101.45,101.45s-101.45-45.51-101.45-101.45v-75.44h55.02c51.6,0,93.59-41.98,93.59-93.59,0-7.33-5.94-13.26-13.26-13.26h-68.27c-51.53,0-93.46,41.87-93.58,93.38,0,.07-.02.14-.02.21v88.71c0,70.56,57.41,127.97,127.98,127.97ZM505.63,468.96h53.7c-6.17,30.65-33.31,53.8-65.74,53.8h-53.7c6.17-30.65,33.31-53.8,65.74-53.8Z"/>
    <path class="cls-1" d="M897.7,227.93h-68.27c-51.6,0-93.58,41.98-93.58,93.59,0,.03,0,.05,0,.08v308.11c0,107.99-87.85,195.84-195.84,195.84s-195.84-87.85-195.84-195.84v-200.93s0-.05,0-.08c-.06-51.55-42.01-93.48-93.58-93.48h-68.28c-7.33,0-13.26,5.94-13.26,13.26,0,51.6,41.98,93.58,93.59,93.58h55.01v187.64c0,122.62,99.76,222.37,222.37,222.37s222.37-99.75,222.37-222.37v-294.92h55c51.6,0,93.58-41.98,93.58-93.59,0-7.33-5.94-13.26-13.26-13.26ZM262.63,415.53c-32.44,0-59.57-23.15-65.74-53.79h53.7c32.44,0,59.57,23.15,65.74,53.79h-53.69ZM817.38,308.25h-53.7c6.17-30.65,33.3-53.8,65.74-53.8h53.7c-6.17,30.65-33.3,53.8-65.74,53.8Z"/>
  </g>
</svg>