<?xml version="1.0" encoding="UTF-8"?>
<svg id="Layer_1" xmlns="http://www.w3.org/2000/svg" viewBox="0 0 731.11 131.42">
  <defs>
    <style>
      .cls-1 {
        fill: #c49a6c;
      }
    </style>
  </defs>
  <path class="cls-1" d="M139.05,0h-20.44c-15.23,0-27.78,11.62-29.24,26.48-.06.48-.08.93-.11,1.38v55.51c0,17.48-13.3,32.76-30.76,33.64-18.62.94-33.47-13.66-33.47-32.41V18.43c0-7.85,4.19-7.85,5.99-7.85h2.51V3.57c0-.12-.1-.22-.22-.22H.22c-.12,0-.22.1-.22.22v7.01h2.51c1.77,0,5.97,0,5.97,7.85v64.75c0,25.65,21,47.52,46.64,47,25.48-.52,44.58-19.93,44.58-45.58v-49.93c0-.12.1-.22.22-.22h15.03c16.2,0,29.36-13.18,29.38-29.35C144.33,2.26,141.89,0,139.05,0ZM114.94,24.32h-14.61c-.15,0-.27-.15-.22-.3,2.32-8.01,9.73-13.89,18.49-13.89h14.61c.15,0,.27.15.22.3-2.32,8.01-9.73,13.89-18.49,13.89Z"/>
  <g>
    <path class="cls-1" d="M174.25,2.35v4.73h1.22c1.88,0,7.6,0,7.6,9.54v98.76c0,9.54-5.72,9.54-7.6,9.54h-1.22v4.73h32.07s0-4.73,0-4.73h-1.22c-5.04,0-7.6-3.21-7.6-9.54v-52.04h36.88c4.11,0,6.9.7,8.27,2.07,1.27,1.27,1.27,3.07,1.26,4.81l.02,1.94h4.72v-25.02h-4.72v1.21s-.01.72-.01.72c0,1.74.02,3.55-1.24,4.81-1.37,1.38-4.16,2.08-8.3,2.08h-36.87V9.73h42.17c9.64,0,11.58,8.05,12.99,13.92l.48,1.95h4.71l-4.24-23.25h-79.36Z"/>
    <path class="cls-1" d="M343.46,84.43c-1.26,16.25-4.72,37.85-20.19,37.85h-35.11V16.35c0-9.27,5.72-9.27,7.6-9.27h1.22V2.35h-32.07v4.73h1.22c1.88,0,7.6,0,7.6,9.54v98.76c0,9.54-5.72,9.54-7.6,9.54h-1.22v4.73h79.54s3.85-46.35,3.85-46.35h-4.75l-.09,1.13Z"/>
    <path class="cls-1" d="M411.63.59c-34.16,0-58.01,26.9-58.01,65.41s23.85,65.41,58.01,65.41,58.01-26.9,58.01-65.41S445.78.59,411.63.59ZM447.64,103.33c-6.89,12.38-17.58,19.54-30.9,20.72-13.38,1.17-25.18-4.03-34.11-15.05-8.05-9.93-13.23-23.88-14.58-39.28-1.35-15.29,1.34-29.87,7.57-41.05,6.89-12.38,17.58-19.54,30.9-20.72,1.24-.11,2.46-.16,3.67-.16,11.87,0,22.33,5.21,30.44,15.21,8.05,9.93,13.23,23.88,14.58,39.27h0c1.35,15.29-1.34,29.87-7.57,41.05Z"/>
    <path class="cls-1" d="M580.95,7.08h1.22c1.88,0,7.6,0,7.6,9.54v98.76c0,9.54-5.72,9.54-7.6,9.54h-.19c-13.95-.08-23.96-9.09-29.75-26.78l-.06-.19c-.62-1.92-1.22-3.9-1.83-5.89-3.56-11.69-7.22-23.73-16.41-29.64,16.7-3.17,26.19-13.73,26.19-29.39,0-22.64-20.89-30.67-38.78-30.67h-47.07v4.73h1.22c1.88,0,7.6,0,7.6,9.54v98.76c0,9.54-5.72,9.54-7.6,9.54h-1.22v4.73h37.36v-4.73h-6.51c-1.84,0-7.46,0-7.6-9.55v-41.6c0-6.23,3.02-8.65,10.77-8.65,4.1,0,18.28,2.02,28.8,27.97,9.35,23.1,24.9,36.02,43.88,36.56v.02h.85c.12,0,.25,0,.37,0h1.22s29.63,0,29.63,0v-4.73h-1.22c-1.88,0-7.6,0-7.6-9.54V16.62c0-9.54,5.72-9.54,7.6-9.54h1.22V2.35h-32.07v4.73ZM497.51,9.74h19.59c18.97,0,28.58,7.84,28.58,23.29,0,10.46-4.96,22.94-28.58,22.94h-.51s0,0,0,0c-8.08.07-15.02,1.86-19.08,4.82V9.74Z"/>
    <path class="cls-1" d="M729.89,124.92c-.33,0-8.17-.12-11.48-10.11L681.13,2.35h-26.97v4.73h1.22c3.69,0,6.4.94,7.61,2.65,1.02,1.44,1.06,3.55.11,6.27l-34.42,98.76c-1.61,4.63-4.93,10.15-11.58,10.15h-1.22v4.73h29.26v-4.75h-1.22c-3.66,0-6.19-.84-7.32-2.42-1.02-1.43-1.03-3.62-.03-6.48l13.69-39.25h39.71l12.59,39.2c.92,2.87.85,5.05-.2,6.5-1.17,1.61-3.73,2.45-7.4,2.45h-1.22v4.75h37.38v-4.73h-1.22ZM670.93,17.47l16.67,51.89h-34.76l18.09-51.89Z"/>
  </g>
</svg>