<?xml version="1.0" encoding="UTF-8"?>
<svg id="Layer_1" xmlns="http://www.w3.org/2000/svg" viewBox="0 0 1080 1080">
  <defs>
    <style>
      .cls-1 {
        fill: #c49a6c;
      }

      .cls-2 {
        fill: #3a2a30;
      }
    </style>
  </defs>
  <rect class="cls-2" x="-82.45" y="-82.45" width="1244.89" height="1244.89"/>
  <g>
    <g>
      <path class="cls-1" d="M540,536.28c36.96,0,67.03-30.07,67.03-67.03v-144.81c0-3.84-3.11-6.95-6.95-6.95s-6.95,3.11-6.95,6.95v144.81c0,29.3-23.84,53.13-53.13,53.13s-53.13-23.84-53.13-53.13v-39.51h28.82c27.03,0,49.01-21.99,49.01-49.02,0-3.84-3.11-6.95-6.95-6.95h-35.76c-26.99,0-48.95,21.93-49.01,48.91,0,.04-.01.07-.01.11v46.46c0,36.96,30.07,67.03,67.03,67.03ZM522,387.67h28.12c-3.23,16.05-17.44,28.18-34.43,28.18h-28.12c3.23-16.05,17.44-28.18,34.43-28.18Z"/>
      <path class="cls-1" d="M727.34,261.44h-35.76c-27.03,0-49.01,21.99-49.01,49.01,0,.01,0,.03,0,.04v161.37c0,56.56-46.01,102.57-102.57,102.57s-102.57-46.01-102.57-102.57v-105.24s0-.03,0-.04c-.03-27-22-48.96-49.01-48.96h-35.76c-3.84,0-6.95,3.11-6.95,6.95,0,27.03,21.99,49.01,49.02,49.01h28.81v98.28c0,64.22,52.25,116.46,116.46,116.46s116.46-52.25,116.46-116.46v-154.46h28.81c27.03,0,49.01-21.99,49.01-49.01,0-3.84-3.11-6.95-6.95-6.95ZM394.73,359.69c-16.99,0-31.2-12.12-34.43-28.17h28.12c16.99,0,31.2,12.12,34.43,28.17h-28.12ZM685.28,303.5h-28.12c3.23-16.05,17.44-28.18,34.43-28.18h28.12c-3.23,16.05-17.44,28.18-34.43,28.18Z"/>
    </g>
    <g>
      <path class="cls-1" d="M324.79,626.97h-19.42c-14.47,0-26.39,11.04-27.78,25.16-.05.45-.08.88-.11,1.31v52.74c0,16.61-12.63,31.13-29.23,31.96-17.69.89-31.8-12.97-31.8-30.79v-62.87c0-7.46,3.98-7.46,5.7-7.46h2.38v-6.66c0-.12-.09-.21-.21-.21h-31.43c-.12,0-.21.09-.21.21v6.66h2.38c1.68,0,5.67,0,5.67,7.46v61.52c0,24.37,19.95,45.15,44.32,44.66,24.21-.49,42.35-18.93,42.35-43.31v-47.44c0-.12.09-.21.21-.21h14.28c15.39,0,27.9-12.52,27.92-27.88,0-2.7-2.32-4.85-5.02-4.85ZM301.89,650.07h-13.88c-.14,0-.25-.14-.21-.28,2.21-7.61,9.25-13.19,17.57-13.19h13.88c.14,0,.25.14.21.28-2.21,7.61-9.25,13.19-17.57,13.19Z"/>
      <g>
        <path class="cls-1" d="M358.24,629.2v4.5h1.16c1.79,0,7.22,0,7.22,9.06v93.84c0,9.06-5.43,9.06-7.22,9.06h-1.16v4.5h30.47s0-4.49,0-4.49h-1.16c-4.79,0-7.22-3.05-7.22-9.06v-49.45h35.04c3.91,0,6.55.66,7.86,1.97,1.2,1.21,1.2,2.91,1.2,4.57l.02,1.84h4.48v-23.77h-4.49v1.15s-.01.68-.01.68c0,1.66.02,3.37-1.18,4.57-1.3,1.31-3.95,1.97-7.88,1.97h-35.03v-43.93h40.06c9.16,0,11,7.65,12.34,13.23l.45,1.85h4.47l-4.03-22.09h-75.4Z"/>
        <path class="cls-1" d="M519.01,707.18c-1.2,15.44-4.49,35.96-19.18,35.96h-33.36v-100.64c0-8.81,5.43-8.81,7.22-8.81h1.16v-4.5h-30.47v4.5h1.16c1.79,0,7.22,0,7.22,9.06v93.84c0,9.06-5.43,9.06-7.22,9.06h-1.16v4.5h75.57s3.66-44.04,3.66-44.04h-4.51l-.08,1.07Z"/>
        <path class="cls-1" d="M583.77,627.53c-32.45,0-55.12,25.56-55.12,62.15s22.67,62.15,55.12,62.15,55.12-25.56,55.12-62.15-22.67-62.15-55.12-62.15ZM617.99,725.15c-6.55,11.76-16.7,18.57-29.36,19.68-12.71,1.11-23.92-3.83-32.41-14.3-7.65-9.44-12.57-22.69-13.85-37.32-1.28-14.53,1.27-28.38,7.19-39,6.55-11.76,16.7-18.57,29.36-19.68,1.18-.1,2.34-.15,3.49-.15,11.28,0,21.22,4.95,28.92,14.45,7.65,9.44,12.57,22.69,13.86,37.32h0c1.28,14.53-1.27,28.38-7.19,39Z"/>
        <path class="cls-1" d="M744.65,633.7h1.16c1.79,0,7.22,0,7.22,9.06v93.84c0,9.06-5.43,9.06-7.22,9.06h-.18c-13.25-.08-22.77-8.63-28.27-25.44l-.06-.18c-.59-1.83-1.16-3.7-1.74-5.6-3.38-11.1-6.86-22.55-15.59-28.17,15.87-3.02,24.88-13.05,24.88-27.93,0-21.51-19.85-29.14-36.85-29.14h-44.73v4.5h1.16c1.79,0,7.22,0,7.22,9.06v93.84c0,9.06-5.43,9.06-7.22,9.06h-1.16v4.5h35.5v-4.5h-6.19c-1.75,0-7.09,0-7.22-9.08v-39.53c0-5.92,2.87-8.22,10.23-8.22,3.89,0,17.37,1.92,27.36,26.57,8.88,21.94,23.66,34.23,41.69,34.73v.02h.81c.12,0,.23,0,.35,0h1.16s28.15,0,28.15,0v-4.5h-1.16c-1.79,0-7.22,0-7.22-9.06v-93.84c0-9.06,5.43-9.06,7.22-9.06h1.16v-4.5h-30.47v4.5ZM665.37,636.22h18.61c18.02,0,27.16,7.45,27.16,22.13,0,9.94-4.71,21.8-27.16,21.8h-.48s0,0,0,0c-7.67.07-14.27,1.77-18.13,4.58v-48.51Z"/>
        <path class="cls-1" d="M886.17,745.66c-.32,0-7.76-.11-10.91-9.61l-35.42-106.85h-25.62v4.5h1.16c3.51,0,6.08.89,7.23,2.52.97,1.37,1.01,3.37.1,5.96l-32.71,93.84c-1.53,4.4-4.69,9.64-11,9.64h-1.16v4.5h27.8v-4.51h-1.16c-3.48,0-5.88-.8-6.95-2.3-.97-1.36-.98-3.44-.03-6.16l13-37.29h37.73l11.96,37.25c.87,2.72.81,4.8-.19,6.17-1.11,1.53-3.54,2.33-7.03,2.33h-1.16v4.51h35.51v-4.5h-1.16ZM830.14,643.57l15.84,49.31h-33.03l17.19-49.31Z"/>
      </g>
    </g>
    <g>
      <path class="cls-1" d="M250.57,808.27v10.04h-2.96v-10.04l-7.78-14.66h3.26l6,11.74,6-11.74h3.26l-7.78,14.66Z"/>
      <path class="cls-1" d="M264.1,817.47c-1.31-.73-2.31-1.78-3.01-3.15-.7-1.37-1.04-2.99-1.04-4.86v-7c0-1.87.35-3.49,1.04-4.86.7-1.37,1.7-2.42,3.01-3.15,1.31-.73,2.85-1.1,4.63-1.1s3.32.37,4.63,1.1c1.31.73,2.31,1.78,3.01,3.15.7,1.37,1.04,2.99,1.04,4.86v7c0,1.87-.35,3.49-1.04,4.86-.7,1.37-1.7,2.42-3.01,3.15-1.31.73-2.85,1.1-4.63,1.1s-3.32-.37-4.63-1.1ZM271.76,814.99c.86-.49,1.51-1.2,1.97-2.12.46-.92.69-2.02.69-3.29v-7.24c0-1.27-.23-2.36-.69-3.29-.46-.92-1.12-1.63-1.97-2.12-.86-.49-1.87-.74-3.03-.74s-2.18.25-3.03.74c-.86.49-1.51,1.2-1.97,2.12-.46.92-.69,2.02-.69,3.29v7.24c0,1.27.23,2.36.69,3.29.46.92,1.12,1.63,1.97,2.12.86.49,1.87.74,3.03.74s2.18-.25,3.03-.74Z"/>
      <path class="cls-1" d="M286.58,817.53c-1.29-.69-2.26-1.71-2.92-3.07-.66-1.35-.99-3.02-.99-5v-15.85h2.96v15.97c0,1.98.48,3.49,1.45,4.53.97,1.04,2.39,1.55,4.26,1.55s3.31-.52,4.28-1.55c.97-1.04,1.46-2.55,1.46-4.53v-15.97h2.96v15.85c0,1.98-.33,3.65-.99,5-.66,1.35-1.63,2.38-2.93,3.07s-2.89,1.04-4.78,1.04-3.47-.35-4.76-1.04Z"/>
      <path class="cls-1" d="M305.81,793.59h2.96v24.72h-2.96v-24.72ZM307.33,805.08h8.43c.79,0,1.49-.18,2.09-.53.6-.36,1.06-.87,1.39-1.53.33-.66.5-1.42.51-2.28,0-.86-.16-1.62-.49-2.28-.33-.66-.79-1.17-1.39-1.53-.6-.36-1.3-.54-2.11-.54h-8.43v-2.79h8.29c1.43,0,2.68.29,3.76.88,1.08.59,1.92,1.42,2.51,2.51.59,1.08.89,2.33.89,3.75s-.3,2.66-.89,3.75c-.59,1.08-1.44,1.92-2.52,2.51-1.09.59-2.34.88-3.75.88h-8.29v-2.79ZM314.65,807.1l2.85-.78,6.32,11.99h-3.52l-5.66-11.21Z"/>
      <path class="cls-1" d="M338.48,818.23c-1.06-.23-2.06-.57-2.98-1.02-.92-.45-1.79-1.02-2.59-1.7l1.82-2.29c.99.86,2.07,1.51,3.26,1.94,1.19.43,2.48.65,3.87.65,1.96,0,3.47-.37,4.54-1.12,1.07-.75,1.61-1.81,1.61-3.18v-.02c0-.91-.24-1.62-.71-2.16-.48-.53-1.09-.93-1.84-1.2-.75-.27-1.72-.51-2.91-.72-.03-.01-.07-.02-.11-.03-.04,0-.08-.01-.11-.03l-.37-.07c-1.7-.31-3.07-.64-4.11-.99-1.04-.36-1.93-.99-2.66-1.89-.73-.9-1.1-2.17-1.1-3.8v-.02c0-1.53.34-2.83,1.03-3.92.68-1.08,1.68-1.91,3-2.47,1.31-.57,2.89-.85,4.74-.85.87,0,1.74.1,2.59.29.86.19,1.7.48,2.53.86s1.66.86,2.47,1.44l-1.7,2.33c-1.01-.71-2-1.25-2.97-1.61-.97-.36-1.95-.54-2.92-.54-1.86,0-3.3.38-4.32,1.14-1.02.76-1.53,1.83-1.53,3.23v.02c0,.89.26,1.6.77,2.11.52.51,1.16.89,1.93,1.14.77.25,1.83.5,3.19.76.05.01.09.02.14.03.04.01.09.02.14.03.07.01.13.02.2.03.06.01.13.02.2.03,1.52.32,2.79.68,3.81,1.1,1.02.41,1.87,1.07,2.55,1.97.68.9,1.02,2.12,1.02,3.66v.03c0,1.51-.36,2.79-1.07,3.86s-1.75,1.89-3.1,2.45c-1.35.56-2.99.84-4.9.84-1.19,0-2.32-.11-3.38-.34Z"/>
      <path class="cls-1" d="M359.07,818.31h-2.96v-24.7h2.96v24.7Z"/>
      <path class="cls-1" d="M382.33,805.35v3.98c0,1.95-.34,3.62-1.01,5-.67,1.39-1.66,2.44-2.96,3.16-1.3.72-2.86,1.08-4.68,1.08s-3.42-.34-4.73-1.02c-1.31-.68-2.3-1.67-2.99-2.97-.69-1.3-1.03-2.87-1.03-4.71v-7.29c0-1.95.34-3.61,1.01-4.99.67-1.38,1.66-2.43,2.96-3.15,1.3-.72,2.86-1.08,4.68-1.08,1.51,0,2.85.29,4.03.86,1.18.57,2.15,1.41,2.91,2.51.76,1.1,1.3,2.42,1.61,3.98h-3.19c-.25-.99-.63-1.81-1.14-2.48-.51-.67-1.12-1.17-1.83-1.52-.71-.35-1.51-.52-2.38-.52-1.2,0-2.22.25-3.07.76-.84.5-1.49,1.23-1.93,2.18-.44.95-.66,2.11-.66,3.47v7.29c0,1.26.22,2.32.67,3.19.45.87,1.1,1.54,1.96,2,.86.46,1.9.69,3.13.69s2.21-.24,3.04-.71c.83-.48,1.46-1.19,1.89-2.13.44-.95.65-2.12.65-3.53v-1.24h-5.5v-2.79h8.56Z"/>
      <path class="cls-1" d="M387.94,793.61h2.8l13.22,20.67-.71-.12v-20.56h2.94v24.68h-2.84l-13.34-20.62.87.27v20.35h-2.94v-24.68Z"/>
      <path class="cls-1" d="M419.02,793.61h2.96l9.11,24.7h-3.23l-7.36-21.03-7.36,21.03h-3.23l9.11-24.7ZM414.12,809.82h13v2.79h-13v-2.79Z"/>
      <path class="cls-1" d="M430.75,793.61h17.43v2.79h-17.43v-2.79ZM437.98,795.12h2.96v23.19h-2.96v-23.19Z"/>
      <path class="cls-1" d="M454.46,817.53c-1.29-.69-2.26-1.71-2.92-3.07-.66-1.35-.99-3.02-.99-5v-15.85h2.96v15.97c0,1.98.48,3.49,1.45,4.53.97,1.04,2.39,1.55,4.26,1.55s3.31-.52,4.28-1.55c.97-1.04,1.46-2.55,1.46-4.53v-15.97h2.96v15.85c0,1.98-.33,3.65-.99,5-.66,1.35-1.63,2.38-2.93,3.07-1.3.69-2.89,1.04-4.78,1.04s-3.47-.35-4.76-1.04Z"/>
      <path class="cls-1" d="M473.69,793.59h2.96v24.72h-2.96v-24.72ZM475.21,805.08h8.43c.79,0,1.49-.18,2.09-.53.6-.36,1.06-.87,1.39-1.53.33-.66.5-1.42.51-2.28,0-.86-.16-1.62-.49-2.28-.33-.66-.79-1.17-1.39-1.53-.6-.36-1.3-.54-2.11-.54h-8.43v-2.79h8.29c1.43,0,2.68.29,3.76.88,1.08.59,1.92,1.42,2.51,2.51s.89,2.33.89,3.75-.3,2.66-.89,3.75c-.59,1.08-1.44,1.92-2.52,2.51-1.09.59-2.34.88-3.75.88h-8.29v-2.79ZM482.53,807.1l2.85-.78,6.32,11.99h-3.52l-5.66-11.21Z"/>
      <path class="cls-1" d="M496.37,793.61h2.96v24.7h-2.96v-24.7ZM498.06,793.61h14.19v2.79h-14.19v-2.79ZM498.06,804.65h12.32v2.79h-12.32v-2.79ZM498.06,815.52h14.19v2.79h-14.19v-2.79Z"/>
      <path class="cls-1" d="M523.11,793.61h2.96v24.7h-2.96v-24.7ZM524.81,793.61h13.85v2.79h-13.85v-2.79ZM524.81,804.87h11.98v2.79h-11.98v-2.79Z"/>
      <path class="cls-1" d="M542.56,793.59h2.96v24.72h-2.96v-24.72ZM544.08,805.08h8.43c.79,0,1.49-.18,2.09-.53.6-.36,1.06-.87,1.39-1.53.33-.66.5-1.42.51-2.28,0-.86-.16-1.62-.49-2.28-.33-.66-.79-1.17-1.39-1.53-.6-.36-1.3-.54-2.11-.54h-8.43v-2.79h8.29c1.43,0,2.68.29,3.76.88,1.08.59,1.92,1.42,2.51,2.51.59,1.08.89,2.33.89,3.75s-.3,2.66-.89,3.75c-.59,1.08-1.44,1.92-2.52,2.51-1.09.59-2.34.88-3.75.88h-8.29v-2.79ZM551.4,807.1l2.85-.78,6.32,11.99h-3.52l-5.66-11.21Z"/>
      <path class="cls-1" d="M571.29,793.61h2.96l9.11,24.7h-3.23l-7.36-21.03-7.36,21.03h-3.23l9.11-24.7ZM566.38,809.82h13v2.79h-13v-2.79Z"/>
      <path class="cls-1" d="M603.47,805.35v3.98c0,1.95-.34,3.62-1.01,5-.67,1.39-1.66,2.44-2.96,3.16-1.3.72-2.86,1.08-4.68,1.08s-3.42-.34-4.73-1.02c-1.31-.68-2.3-1.67-2.99-2.97-.69-1.3-1.03-2.87-1.03-4.71v-7.29c0-1.95.34-3.61,1.01-4.99.67-1.38,1.66-2.43,2.96-3.15,1.3-.72,2.86-1.08,4.68-1.08,1.51,0,2.85.29,4.03.86,1.18.57,2.15,1.41,2.91,2.51.76,1.1,1.3,2.42,1.61,3.98h-3.19c-.25-.99-.63-1.81-1.14-2.48-.51-.67-1.12-1.17-1.83-1.52-.71-.35-1.51-.52-2.38-.52-1.2,0-2.22.25-3.07.76-.84.5-1.49,1.23-1.93,2.18-.44.95-.66,2.11-.66,3.47v7.29c0,1.26.22,2.32.67,3.19.45.87,1.1,1.54,1.96,2,.86.46,1.9.69,3.13.69s2.21-.24,3.04-.71c.83-.48,1.46-1.19,1.89-2.13.44-.95.65-2.12.65-3.53v-1.24h-5.5v-2.79h8.56Z"/>
      <path class="cls-1" d="M609.08,793.59h2.96v24.72h-2.96v-24.72ZM610.59,805.08h8.43c.79,0,1.49-.18,2.09-.53.6-.36,1.06-.87,1.39-1.53.33-.66.5-1.42.51-2.28,0-.86-.16-1.62-.49-2.28-.33-.66-.79-1.17-1.39-1.53-.6-.36-1.3-.54-2.11-.54h-8.43v-2.79h8.29c1.43,0,2.68.29,3.76.88,1.08.59,1.92,1.42,2.51,2.51.59,1.08.89,2.33.89,3.75s-.3,2.66-.89,3.75c-.59,1.08-1.44,1.92-2.52,2.51-1.09.59-2.34.88-3.75.88h-8.29v-2.79ZM617.91,807.1l2.85-.78,6.32,11.99h-3.52l-5.66-11.21Z"/>
      <path class="cls-1" d="M637.8,793.61h2.96l9.11,24.7h-3.23l-7.36-21.03-7.36,21.03h-3.23l9.11-24.7ZM632.89,809.82h13v2.79h-13v-2.79Z"/>
      <path class="cls-1" d="M653.6,793.61h2.8l13.22,20.67-.71-.12v-20.56h2.94v24.68h-2.84l-13.34-20.62.87.27v20.35h-2.94v-24.68Z"/>
      <path class="cls-1" d="M681.54,817.43c-1.3-.76-2.3-1.83-3.02-3.23-.71-1.39-1.07-3.01-1.07-4.84v-6.78c0-1.83.36-3.45,1.07-4.84.71-1.39,1.72-2.47,3.02-3.24,1.3-.76,2.8-1.15,4.51-1.15,1.42,0,2.72.29,3.91.88,1.19.59,2.18,1.43,2.98,2.51.8,1.09,1.34,2.34,1.62,3.77h-2.99c-.25-.85-.65-1.61-1.21-2.27-.56-.66-1.22-1.17-1.97-1.54-.75-.36-1.53-.54-2.34-.54-1.12,0-2.1.27-2.95.8-.84.53-1.5,1.28-1.96,2.24-.46.96-.7,2.08-.7,3.36v6.78c0,1.27.23,2.39.7,3.36s1.12,1.72,1.96,2.24c.84.53,1.83.79,2.95.79.82,0,1.6-.17,2.34-.51.75-.34,1.4-.84,1.96-1.49.56-.66.97-1.44,1.21-2.34h2.99c-.28,1.43-.83,2.68-1.63,3.77-.8,1.09-1.8,1.93-2.99,2.51-1.19.59-2.49.88-3.89.88-1.71,0-3.21-.38-4.51-1.14Z"/>
      <path class="cls-1" d="M699.49,793.61h2.96v24.7h-2.96v-24.7ZM701.17,793.61h14.19v2.79h-14.19v-2.79ZM701.17,804.65h12.32v2.79h-12.32v-2.79ZM701.17,815.52h14.19v2.79h-14.19v-2.79Z"/>
      <path class="cls-1" d="M732.95,793.61h2.96l9.11,24.7h-3.23l-7.36-21.03-7.36,21.03h-3.23l9.11-24.7ZM728.04,809.82h13v2.79h-13v-2.79Z"/>
      <path class="cls-1" d="M757.54,793.61h2.04l5.23,20.3,4.79-20.3h3.18l-6.37,24.7h-3.02l-4.72-18.36-4.93,18.36h-3.02l-6.37-24.7h3.18l4.79,20.3,5.23-20.3Z"/>
      <path class="cls-1" d="M781.54,793.61h2.96l9.11,24.7h-3.23l-7.36-21.03-7.36,21.03h-3.23l9.11-24.7ZM776.63,809.82h13v2.79h-13v-2.79Z"/>
      <path class="cls-1" d="M800.55,818.31h-2.96v-24.7h2.96v24.7Z"/>
      <path class="cls-1" d="M803.52,793.61h17.43v2.79h-17.43v-2.79ZM810.76,795.12h2.96v23.19h-2.96v-23.19Z"/>
      <path class="cls-1" d="M827.72,818.23c-1.06-.23-2.06-.57-2.98-1.02-.92-.45-1.79-1.02-2.59-1.7l1.82-2.29c.99.86,2.07,1.51,3.26,1.94,1.19.43,2.48.65,3.87.65,1.96,0,3.47-.37,4.54-1.12,1.07-.75,1.61-1.81,1.61-3.18v-.02c0-.91-.24-1.62-.71-2.16-.48-.53-1.09-.93-1.84-1.2-.75-.27-1.72-.51-2.91-.72-.03-.01-.07-.02-.11-.03-.04,0-.08-.01-.11-.03l-.37-.07c-1.7-.31-3.07-.64-4.11-.99-1.04-.36-1.93-.99-2.66-1.89-.73-.9-1.1-2.17-1.1-3.8v-.02c0-1.53.34-2.83,1.03-3.92.68-1.08,1.68-1.91,3-2.47,1.31-.57,2.89-.85,4.74-.85.87,0,1.74.1,2.59.29.86.19,1.7.48,2.53.86s1.66.86,2.47,1.44l-1.7,2.33c-1.01-.71-2-1.25-2.97-1.61-.97-.36-1.95-.54-2.92-.54-1.86,0-3.3.38-4.32,1.14-1.02.76-1.53,1.83-1.53,3.23v.02c0,.89.26,1.6.77,2.11.52.51,1.16.89,1.93,1.14.77.25,1.83.5,3.19.76.05.01.09.02.14.03.04.01.09.02.14.03.07.01.13.02.2.03.06.01.13.02.2.03,1.52.32,2.79.68,3.81,1.1,1.02.41,1.87,1.07,2.55,1.97.68.9,1.02,2.12,1.02,3.66v.03c0,1.51-.36,2.79-1.07,3.86s-1.75,1.89-3.1,2.45c-1.35.56-2.99.84-4.9.84-1.19,0-2.32-.11-3.38-.34Z"/>
    </g>
  </g>
</svg>